<svg width="15" height="15" viewBox="0 0 15 15" fill="none" xmlns="http://www.w3.org/2000/svg">
<path d="M12.6394 5.71867H8.34497L8.99152 2.63805L9.01194 2.42234C9.01194 2.14596 8.89624 1.88981 8.71248 1.7078L7.99107 1L3.51287 5.44229C3.26106 5.68497 3.11133 6.02202 3.11133 6.39277V13.1337C3.11133 13.8752 3.72385 14.4819 4.47248 14.4819H10.5977C11.1626 14.4819 11.6458 14.1449 11.8499 13.6595L13.9053 8.90715C13.9665 8.75211 14.0006 8.59032 14.0006 8.41506V7.06687C14.0006 6.32536 13.3881 5.71867 12.6394 5.71867Z" fill="white" stroke="#666666"/>
<path d="M0 5.6665H1.55561V14.4816H0V5.6665Z" fill="#666666"/>
</svg>
