<svg width="21" height="14" viewBox="0 0 21 14" fill="none" xmlns="http://www.w3.org/2000/svg">
<path fill-rule="evenodd" clip-rule="evenodd" d="M17.1548 6.45934C18.8312 7.06134 19.89 8.39094 20.2587 10.4084C20.3377 10.8407 20.0144 11.2404 19.5856 11.2404H9.99848C9.5697 11.2404 9.2464 10.8407 9.32541 10.4084C9.69414 8.39094 10.7529 7.06134 12.4293 6.45934C11.7741 5.77502 11.3681 4.81003 11.3681 3.7468C11.3681 1.6895 12.8883 0 14.7921 0C16.6959 0 18.216 1.6895 18.216 3.7468C18.216 4.81003 17.81 5.77502 17.1548 6.45934Z" fill="#666666"/>
<path fill-rule="evenodd" clip-rule="evenodd" d="M7.84135 6.45934C9.51776 7.06134 10.5765 8.39094 10.9452 10.4084C11.0242 10.8407 10.7009 11.2404 10.2721 11.2404H0.685004C0.256227 11.2404 -0.0670813 10.8407 0.0119373 10.4084C0.380665 8.39094 1.43939 7.06134 3.1158 6.45934C2.46063 5.77502 2.0546 4.81003 2.0546 3.7468C2.0546 1.6895 3.57478 0 5.47857 0C7.38237 0 8.90255 1.6895 8.90255 3.7468C8.90255 4.81003 8.49652 5.77502 7.84135 6.45934Z" fill="#666666"/>
<path fill-rule="evenodd" clip-rule="evenodd" d="M12.4976 8.91199C14.174 9.51399 15.2327 10.8436 15.6015 12.861C15.6805 13.2934 15.3572 13.693 14.9284 13.693H5.34125C4.91248 13.693 4.58917 13.2934 4.66819 12.861C5.03691 10.8436 6.09564 9.51399 7.77205 8.91199C7.11688 8.22767 6.71085 7.26267 6.71085 6.19944C6.71085 4.14214 8.23103 2.45264 10.1348 2.45264C12.0386 2.45264 13.5588 4.14214 13.5588 6.19944C13.5588 7.26267 13.1528 8.22767 12.4976 8.91199Z" fill="#666666"/>
<path d="M12.4976 8.91199L12.317 8.7391L12.0508 9.01717L12.4131 9.14727L12.4976 8.91199ZM15.6015 12.861L15.8474 12.8161L15.6015 12.861ZM4.66819 12.861L4.42226 12.8161L4.66819 12.861ZM7.77205 8.91199L7.85654 9.14727L8.21886 9.01717L7.95263 8.7391L7.77205 8.91199ZM12.4131 9.14727C13.9931 9.71466 15.0003 10.9623 15.3555 12.906L15.8474 12.8161C15.4652 10.7249 14.3549 9.31332 12.5821 8.6767L12.4131 9.14727ZM15.3555 12.906C15.4079 13.1924 15.1934 13.443 14.9284 13.443V13.943C15.5209 13.943 15.9531 13.3943 15.8474 12.8161L15.3555 12.906ZM14.9284 13.443H5.34125V13.943H14.9284V13.443ZM5.34125 13.443C5.07621 13.443 4.86176 13.1924 4.91411 12.906L4.42226 12.8161C4.31658 13.3943 4.74874 13.943 5.34125 13.943V13.443ZM4.91411 12.906C5.26936 10.9623 6.27654 9.71466 7.85654 9.14727L7.68756 8.6767C5.91474 9.31332 4.80447 10.7249 4.42226 12.8161L4.91411 12.906ZM7.95263 8.7391C7.34255 8.10188 6.96085 7.19904 6.96085 6.19944H6.46085C6.46085 7.3263 6.8912 8.35345 7.59147 9.08488L7.95263 8.7391ZM6.96085 6.19944C6.96085 4.25736 8.3909 2.70264 10.1348 2.70264V2.20264C8.07116 2.20264 6.46085 4.02692 6.46085 6.19944H6.96085ZM10.1348 2.70264C11.8788 2.70264 13.3088 4.25736 13.3088 6.19944H13.8088C13.8088 4.02692 12.1985 2.20264 10.1348 2.20264V2.70264ZM13.3088 6.19944C13.3088 7.19904 12.9271 8.10188 12.317 8.7391L12.6782 9.08488C13.3785 8.35345 13.8088 7.3263 13.8088 6.19944H13.3088Z" fill="white"/>
</svg>
